<svg width="48" height="48" viewBox="0 0 48 48" fill="none" xmlns="http://www.w3.org/2000/svg">
<rect width="48" height="48" rx="24" fill="black"/>
<path d="M29.2402 12H25.0968V28.3478C25.0968 30.2957 23.5033 31.8957 21.5201 31.8957C19.537 31.8957 17.9434 30.2957 17.9434 28.3478C17.9434 26.4348 19.5016 24.8695 21.4139 24.8V20.6957C17.1997 20.7652 13.8 24.1391 13.8 28.3478C13.8 32.5913 17.2705 36 21.5556 36C25.8405 36 29.311 32.5565 29.311 28.3478V19.9652C30.8692 21.0783 32.7815 21.7391 34.8 21.7739V17.6696C31.6837 17.5652 29.2402 15.0609 29.2402 12Z" fill="white"/>
</svg>
